<svg width="120" height="36" viewBox="0 0 120 36" fill="none" xmlns="http://www.w3.org/2000/svg">
<g clip-path="url(#clip0_71_83)">
<path d="M19.4083 0.792384L3.21231 6.46146C1.41198 7.09367 1.41198 9.60862 3.21231 10.2408L3.98893 10.5118L10.5266 12.8044C12.4399 13.4852 13.7178 15.2707 13.7178 17.2785V25.4279L20.1637 23.156C22.084 22.4752 23.3689 20.6897 23.3689 18.6819V3.57828C23.3689 1.5566 21.3427 0.139331 19.4083 0.792384Z" fill="#5D3EA8" fill-opacity="0.6"/>
<path d="M3.21223 29.1307C2.30853 29.4503 1.85669 30.2353 1.85669 31.0205C1.85669 31.757 2.245 32.4864 3.03572 32.8406C3.0922 32.8685 3.14869 32.8893 3.21223 32.91L9.91229 35.2514C11.8044 35.7864 13.7248 34.397 13.7248 32.4237V25.4279L3.21223 29.1307Z" fill="#5D3EA8" fill-opacity="0.6"/>
<path d="M10.5337 12.7974L3.21237 10.2408C1.41203 9.60858 1.41203 7.09364 3.21237 6.46143C1.28494 7.13532 0 8.93469 0 10.9425V26.0879V28.422C0 30.2215 1.03078 31.8472 2.63344 32.6531C2.65462 32.6599 2.66874 32.6739 2.68992 32.6809C2.72522 32.6946 2.77464 32.7156 2.82406 32.7433C2.85936 32.7641 2.90172 32.7781 2.93702 32.7921C2.98644 32.8128 3.02174 32.8268 3.03586 32.8336C2.25218 32.4794 1.85681 31.75 1.85681 31.0135C1.85681 30.2283 2.30867 29.4363 3.21237 29.1237L13.7178 25.4209V17.2785C13.7249 15.2707 12.447 13.4783 10.5337 12.7974Z" fill="#5D3EA8"/>
<path d="M39.5254 11.4198C41.0315 11.4198 42.2816 11.9255 43.2754 12.9368C44.2846 13.9326 44.7894 15.1773 44.7894 16.671C44.7894 18.1491 44.2846 19.3938 43.2754 20.4051C42.2816 21.4165 41.0315 21.9221 39.5254 21.9221H35.7752V27.7568H33.6091V11.4198H39.5254ZM39.5254 19.8917C40.4259 19.8917 41.1714 19.5883 41.7615 18.9815C42.3515 18.3591 42.6466 17.589 42.6466 16.671C42.6466 15.7374 42.3515 14.9673 41.7615 14.3605C41.1714 13.7537 40.4259 13.4503 39.5254 13.4503H35.7752V19.8917H39.5254Z" fill="#5D3EA8"/>
<path d="M56.3599 16.0875H58.3864V27.7567H56.3599V25.7497C55.3505 27.2898 53.8832 28.0601 51.9576 28.0601C50.3272 28.0601 48.9375 27.4689 47.7885 26.2863C46.6392 25.0883 46.0647 23.6337 46.0647 21.9221C46.0647 20.2106 46.6392 18.7636 47.7885 17.5811C48.9375 16.3831 50.3272 15.7841 51.9576 15.7841C53.8832 15.7841 55.3505 16.5542 56.3599 18.0946V16.0875ZM52.2138 26.0997C53.3939 26.0997 54.3801 25.703 55.1721 24.9094C55.964 24.1004 56.3599 23.1046 56.3599 21.9221C56.3599 20.7396 55.964 19.7516 55.1721 18.9581C54.3801 18.149 53.3939 17.7445 52.2138 17.7445C51.0492 17.7445 50.0709 18.149 49.279 18.9581C48.487 19.7516 48.0912 20.7396 48.0912 21.9221C48.0912 23.1046 48.487 24.1004 49.279 24.9094C50.0709 25.703 51.0492 26.0997 52.2138 26.0997Z" fill="#5D3EA8"/>
<path d="M70.0513 16.0875H72.2174L67.4659 28.4802C66.969 29.8027 66.2702 30.8064 65.3695 31.491C64.4844 32.1912 63.4596 32.5022 62.2948 32.4244V30.5339C63.7235 30.6429 64.7717 29.8494 65.4394 28.1536L65.649 27.7101L60.5713 16.0875H62.7374L66.6972 25.2361L70.0513 16.0875Z" fill="#5D3EA8"/>
<path d="M79.4862 18.0479H76.3885V24.3726C76.3885 24.9482 76.497 25.3606 76.7145 25.6096C76.9475 25.843 77.2969 25.9673 77.7627 25.9829C78.2284 25.9829 78.803 25.9673 79.4862 25.9362V27.7567C77.716 27.99 76.4194 27.8501 75.5966 27.3365C74.7735 26.8076 74.3621 25.8196 74.3621 24.3726V13.4269L76.3885 12.8201V16.0875H79.4862V18.0479Z" fill="#5D3EA8"/>
<path d="M83.2306 13.9638C82.8424 13.9638 82.5162 13.8315 82.2523 13.567C81.9882 13.3025 81.8562 12.9835 81.8562 12.6101C81.8562 12.2367 81.9882 11.9177 82.2523 11.6532C82.5162 11.3732 82.8424 11.2332 83.2306 11.2332C83.6032 11.2332 83.9215 11.3732 84.1854 11.6532C84.4495 11.9177 84.5815 12.2367 84.5815 12.6101C84.5815 12.9835 84.4495 13.3025 84.1854 13.567C83.9215 13.8315 83.6032 13.9638 83.2306 13.9638ZM82.2056 27.7568V16.0876H84.2321V27.7568H82.2056Z" fill="#5D3EA8"/>
<path d="M89.0461 22.8556C89.248 23.898 89.7216 24.7071 90.4669 25.2828C91.2277 25.8584 92.1595 26.1464 93.2619 26.1464C94.7993 26.1464 95.9172 25.5785 96.616 24.4425L98.3398 25.4228C97.2061 27.1811 95.4981 28.0601 93.2154 28.0601C91.3676 28.0601 89.8613 27.4845 88.6967 26.333C87.5477 25.1661 86.9731 23.6959 86.9731 21.9221C86.9731 20.1639 87.5398 18.7014 88.6734 17.5345C89.8069 16.3675 91.2744 15.7841 93.0756 15.7841C94.7837 15.7841 96.1734 16.3909 97.2449 17.6045C98.3319 18.8025 98.8755 20.2495 98.8755 21.9454C98.8755 22.2411 98.852 22.5444 98.8056 22.8556H89.0461ZM93.0756 17.6978C91.9886 17.6978 91.0881 18.009 90.3738 18.6314C89.6594 19.2382 89.2168 20.055 89.0461 21.0819H96.8256C96.6548 19.9772 96.2201 19.137 95.5213 18.5613C94.8225 17.9857 94.0074 17.6978 93.0756 17.6978Z" fill="#5D3EA8"/>
<path d="M107.099 15.7841C108.465 15.7841 109.56 16.2197 110.383 17.091C111.206 17.9468 111.617 19.1137 111.617 20.5918V27.7567H109.591V20.7085C109.591 19.7594 109.335 19.0281 108.822 18.5147C108.31 17.9857 107.603 17.7212 106.702 17.7212C105.693 17.7212 104.878 18.0401 104.257 18.678C103.636 19.3004 103.325 20.265 103.325 21.572V27.7567H101.299V16.0875H103.325V17.7678C104.148 16.4453 105.406 15.7841 107.099 15.7841Z" fill="#5D3EA8"/>
<path d="M119.549 18.0479H116.451V24.3726C116.451 24.9482 116.56 25.3606 116.777 25.6096C117.01 25.843 117.359 25.9673 117.825 25.9829C118.291 25.9829 118.866 25.9673 119.549 25.9362V27.7567C117.779 27.99 116.482 27.8501 115.659 27.3365C114.836 26.8076 114.425 25.8196 114.425 24.3726V13.4269L116.451 12.8201V16.0875H119.549V18.0479Z" fill="#5D3EA8"/>
<path fill-rule="evenodd" clip-rule="evenodd" d="M36.1722 28.1537H33.2119V11.0228H39.5252C41.1294 11.0228 42.483 11.5654 43.5563 12.6563C44.6442 13.7307 45.1862 15.0784 45.1862 16.6709C45.1862 18.2496 44.643 19.596 43.5574 20.6844C42.4839 21.7761 41.1299 22.3191 39.5252 22.3191H36.1722V28.1537ZM35.7752 21.9221H39.5252C41.0313 21.9221 42.2814 21.4164 43.2752 20.4051C44.2846 19.3937 44.7892 18.149 44.7892 16.6709C44.7892 15.1773 44.2846 13.9325 43.2752 12.9368C42.2814 11.9254 41.0313 11.4198 39.5252 11.4198H33.6089V27.7567H35.7752V21.9221ZM55.9627 15.6905H58.7832V28.1537H55.9627V26.8797C54.9344 27.9304 53.5905 28.4571 51.9576 28.4571C50.2185 28.4571 48.7264 27.8215 47.5036 26.5631L47.5018 26.5612C46.2793 25.2868 45.6676 23.7325 45.6676 21.9221C45.6676 20.1121 46.2793 18.5649 47.5027 17.3054C48.7248 16.0315 50.2172 15.3871 51.9576 15.3871C53.5905 15.3871 54.9344 15.9137 55.9627 16.9644V15.6905ZM56.3597 18.0946C56.2345 17.9034 56.1021 17.7241 55.9627 17.5566C54.9791 16.3749 53.6442 15.7841 51.9576 15.7841C50.327 15.7841 48.9373 16.3831 47.7883 17.5811C46.6393 18.7636 46.0645 20.2106 46.0645 21.9221C46.0645 23.6337 46.6393 25.0883 47.7883 26.2863C48.9373 27.4689 50.327 28.0601 51.9576 28.0601C53.6442 28.0601 54.9791 27.4691 55.9627 26.2876C56.1021 26.12 56.2345 25.9407 56.3597 25.7497V27.7567H58.3862V16.0875H56.3597V18.0946ZM54.8895 19.2372L54.8882 19.2358C54.1745 18.5066 53.2923 18.1415 52.2139 18.1415C51.1526 18.1415 50.2776 18.5054 49.5626 19.2358L49.5612 19.2372L49.5599 19.2385C48.8467 19.9532 48.488 20.8384 48.488 21.9221C48.488 23.0052 48.8464 23.8994 49.5612 24.6302C50.2754 25.345 51.1506 25.7028 52.2139 25.7028C53.2941 25.7028 54.1765 25.3441 54.8895 24.6302C55.6045 23.8991 55.9627 23.0052 55.9627 21.9221C55.9627 20.8384 55.6041 19.9532 54.8909 19.2385L54.8895 19.2372ZM55.1719 24.9094C54.38 25.703 53.394 26.0997 52.2139 26.0997C51.0491 26.0997 50.0708 25.703 49.2791 24.9094C48.4871 24.1003 48.091 23.1045 48.091 21.9221C48.091 20.7396 48.4871 19.7516 49.2791 18.9581C50.0708 18.149 51.0491 17.7445 52.2139 17.7445C53.394 17.7445 54.38 18.149 55.1719 18.9581C55.9639 19.7516 56.3597 20.7396 56.3597 21.9221C56.3597 23.1045 55.9639 24.1003 55.1719 24.9094ZM69.774 15.6905H72.7948L67.8373 28.6197C67.8373 28.6202 67.8371 28.6204 67.8371 28.6209C67.321 29.9941 66.5843 31.0651 65.6128 31.8047C64.6481 32.5664 63.5264 32.9046 62.2684 32.8204L61.898 32.7958V30.1055L62.325 30.1382C62.9521 30.1858 63.4731 30.0367 63.9127 29.704C64.3605 29.3652 64.753 28.8133 65.0699 28.008L65.0748 27.9956L65.2129 27.7035L59.9647 15.6905H62.9983L66.6666 24.1662L69.774 15.6905ZM66.6971 25.2361L62.7376 16.0875H60.5712L65.6489 27.71L65.4394 28.1535C64.8351 29.6882 63.9193 30.4838 62.692 30.5406C62.563 30.5465 62.4308 30.5443 62.295 30.5339V32.4243C63.4596 32.5021 64.4843 32.1911 65.3694 31.4909C66.2701 30.8064 66.9689 29.8026 67.4658 28.4801L72.2173 16.0875H70.0512L66.6971 25.2361ZM79.8833 18.4449H76.7854V24.3726C76.7854 24.9047 76.887 25.1955 77.0051 25.3387C77.1427 25.4704 77.376 25.5719 77.7694 25.5859C78.2261 25.5859 78.7918 25.5706 79.4681 25.5397L79.8833 25.5207V28.1048L79.5382 28.1503C77.7441 28.3867 76.3303 28.2625 75.3863 27.6735L75.384 27.6719L75.3818 27.6706C74.3972 27.0376 73.965 25.8852 73.965 24.3726V13.1313L76.7854 12.2868V15.6905H79.8833V18.4449ZM76.3885 16.0875V12.8201L74.362 13.4269V24.3726C74.362 25.8196 74.7734 26.8076 75.5965 27.3365C76.4194 27.8501 77.7161 27.99 79.4864 27.7567V25.9362C79.3497 25.9425 79.2173 25.9482 79.0894 25.9531C78.5776 25.973 78.1352 25.9829 77.7626 25.9829C77.2968 25.9673 76.9474 25.8431 76.7144 25.6096C76.4972 25.3606 76.3885 24.9482 76.3885 24.3726V18.0479H79.4864V16.0875H76.3885ZM81.8085 28.1537V15.6905H84.629V28.1537H81.8085ZM98.1139 25.751C96.984 27.2905 95.3512 28.0601 93.2153 28.0601C91.3675 28.0601 89.8612 27.4845 88.6966 26.333C87.5476 25.1661 86.973 23.6959 86.973 21.9221C86.973 20.1639 87.5399 18.7014 88.6733 17.5345C89.8068 16.3675 91.2743 15.7841 93.0757 15.7841C94.7836 15.7841 96.1733 16.3909 97.2448 17.6045C98.3318 18.8025 98.8754 20.2495 98.8754 21.9454C98.8754 22.241 98.8521 22.5444 98.8054 22.8556H89.046C89.0724 22.9919 89.1035 23.1243 89.1391 23.2527C89.3764 24.1058 89.819 24.7825 90.4668 25.2828C91.2276 25.8584 92.1594 26.1464 93.262 26.1464C94.7992 26.1464 95.9173 25.5785 96.6159 24.4425L98.3397 25.4228C98.2668 25.5358 98.1915 25.6452 98.1139 25.751ZM90.7082 24.9674C91.3894 25.4824 92.2327 25.7494 93.262 25.7494C94.6862 25.7494 95.6636 25.2331 96.2778 24.2346L96.4788 23.9079L98.9006 25.2852L98.6733 25.638C97.4591 27.5212 95.6182 28.4571 93.2153 28.4571C91.2775 28.4571 89.6663 27.8499 88.4175 26.6154L88.4157 26.6136L88.4137 26.6116C87.1851 25.364 86.5761 23.7904 86.5761 21.9221C86.5761 20.0698 87.1769 18.5052 88.3887 17.2578C89.6054 16.0053 91.1798 15.3871 93.0757 15.3871C94.8894 15.3871 96.3894 16.0368 97.5405 17.3395C98.6961 18.614 99.2724 20.1569 99.2724 21.9454C99.2724 22.2619 99.2473 22.585 99.1982 22.9144L99.1474 23.2527H89.5526C89.7752 23.9801 90.1625 24.5458 90.7082 24.9674ZM90.6326 18.9323L90.6308 18.9339C90.1036 19.3817 89.7375 19.9602 89.5386 20.6849H96.3423C96.1458 19.8869 95.782 19.2906 95.2688 18.8677C94.6433 18.3524 93.9182 18.0948 93.0757 18.0948C92.0694 18.0948 91.266 18.3805 90.6344 18.9307L90.6326 18.9323ZM96.7503 20.6849C96.5435 19.7738 96.1339 19.066 95.5212 18.5613C94.8224 17.9856 94.0073 17.6978 93.0757 17.6978C91.9887 17.6978 91.088 18.009 90.3736 18.6313C89.754 19.1578 89.3388 19.8423 89.1283 20.6849C89.096 20.8135 89.0688 20.9459 89.046 21.0819H96.8257C96.8045 20.9455 96.7794 20.8132 96.7503 20.6849ZM112.014 28.1537H109.194V20.7085C109.194 19.8308 108.958 19.2132 108.541 18.7951L108.539 18.793L108.537 18.7909C108.115 18.3557 107.521 18.1181 106.702 18.1181C105.784 18.1181 105.077 18.4043 104.541 18.955L104.539 18.9567L104.538 18.9585C104.02 19.4769 103.722 20.3195 103.722 21.572V28.1537H100.902V15.6905H103.722V16.6393C104.584 15.803 105.719 15.3871 107.098 15.3871C108.557 15.3871 109.761 15.8558 110.67 16.8171C111.58 17.7638 112.014 19.0382 112.014 20.5918V28.1537ZM110.383 17.091C109.559 16.2197 108.465 15.7841 107.098 15.7841C105.658 15.7841 104.533 16.2629 103.722 17.2205C103.58 17.3883 103.448 17.5707 103.325 17.7678V16.0875H101.299V27.7567H103.325V21.572C103.325 20.265 103.635 19.3004 104.257 18.678C104.878 18.0401 105.693 17.7211 106.702 17.7211C107.603 17.7211 108.31 17.9856 108.822 18.5147C109.334 19.0281 109.591 19.7594 109.591 20.7085V27.7567H111.617V20.5918C111.617 19.1137 111.206 17.9468 110.383 17.091ZM119.946 18.4449H116.848V24.3726C116.848 24.9047 116.95 25.1955 117.068 25.3387C117.205 25.4704 117.439 25.5719 117.832 25.5859C118.289 25.5859 118.854 25.5706 119.531 25.5397L119.946 25.5207V28.1048L119.601 28.1503C117.807 28.3867 116.393 28.2625 115.449 27.6735L115.447 27.6719L115.444 27.6706C114.46 27.0376 114.028 25.8852 114.028 24.3726V13.1313L116.848 12.2868V15.6905H119.946V18.4449ZM116.451 16.0875V12.8201L114.425 13.4269V24.3726C114.425 25.8196 114.836 26.8076 115.659 27.3365C116.482 27.8501 117.779 27.99 119.549 27.7567V25.9362C119.412 25.9425 119.28 25.9482 119.152 25.9531C118.64 25.973 118.198 25.9829 117.825 25.9829C117.359 25.9673 117.01 25.8431 116.777 25.6096C116.56 25.3606 116.451 24.9482 116.451 24.3726V18.0479H119.549V16.0875H116.451ZM41.7612 18.9814C42.3513 18.3591 42.6463 17.5889 42.6463 16.6709C42.6463 15.7374 42.3513 14.9672 41.7612 14.3604C41.1712 13.7536 40.4259 13.4502 39.5252 13.4502H35.7752V19.8916H39.5252C40.4259 19.8916 41.1712 19.5882 41.7612 18.9814ZM36.1722 19.4946H39.5252C40.3253 19.4946 40.965 19.2299 41.4748 18.7064C41.9886 18.1637 42.2494 17.4942 42.2494 16.6709C42.2494 15.8291 41.9868 15.1619 41.4766 14.6372C40.9664 14.1126 40.3262 13.8472 39.5252 13.8472H36.1722V19.4946ZM83.2305 14.3607C82.7415 14.3607 82.3129 14.1896 81.9712 13.8473C81.633 13.5085 81.4591 13.0887 81.4591 12.61C81.4591 12.1332 81.6317 11.7149 81.9673 11.3767C82.3064 11.019 82.7358 10.8361 83.2305 10.8361C83.7146 10.8361 84.1348 11.0227 84.4704 11.3767C84.806 11.7149 84.9784 12.1332 84.9784 12.61C84.9784 13.0887 84.8047 13.5085 84.4663 13.8473C84.1282 14.1862 83.7089 14.3607 83.2305 14.3607ZM84.1855 11.6531C84.4494 11.9176 84.5814 12.2366 84.5814 12.61C84.5814 12.9834 84.4494 13.3024 84.1855 13.5669C83.9214 13.8314 83.6031 13.9637 83.2305 13.9637C82.8423 13.9637 82.5161 13.8314 82.2522 13.5669C81.9883 13.3024 81.8561 12.9834 81.8561 12.61C81.8561 12.2366 81.9883 11.9176 82.2522 11.6531C82.5161 11.3731 82.8423 11.2331 83.2305 11.2331C83.6031 11.2331 83.9214 11.3731 84.1855 11.6531ZM82.2055 16.0875H84.232V27.7567H82.2055V16.0875Z" fill="#5D3EA8"/>
</g>
<defs>
<clipPath id="clip0_71_83">
<rect width="120" height="34.7368" fill="white" transform="translate(0 0.631592)"/>
</clipPath>
</defs>
</svg>
